<?xml version="1.0" encoding="utf-8" ?>
<svg baseProfile="tiny" height="100%" version="1.2" width="100%" xmlns="http://www.w3.org/2000/svg" xmlns:ev="http://www.w3.org/2001/xml-events" xmlns:xlink="http://www.w3.org/1999/xlink"><defs /><rect fill="rgb(100%,100%,100%)" height="2827.5" stroke="none" width="3000.0" x="0" y="0" /><line stroke="rgb(0%,0%,0%)" stroke-width="10" x1="0" x2="3000.0" y1="5.0" y2="5.0" /><line stroke="rgb(0%,0%,0%)" stroke-width="10" x1="0" x2="3000.0" y1="2822.5" y2="2822.5" /><ellipse cx="93.75" cy="322.0" fill="rgb(0%,0%,0%)" rx="32.5" ry="136.0" stroke="none" /><ellipse cx="93.75" cy="719.0" fill="rgb(0%,0%,0%)" rx="32.5" ry="136.0" stroke="none" /><ellipse cx="93.75" cy="1116.0" fill="rgb(0%,0%,0%)" rx="32.5" ry="136.0" stroke="none" /><ellipse cx="93.75" cy="1513.0" fill="rgb(0%,0%,0%)" rx="32.5" ry="136.0" stroke="none" /><ellipse cx="93.75" cy="1910.0" fill="rgb(0%,0%,0%)" rx="32.5" ry="136.0" stroke="none" /><ellipse cx="93.75" cy="2307.0" fill="rgb(0%,0%,0%)" rx="80.0" ry="46.5" stroke="none" /><ellipse cx="281.25" cy="520.5" fill="rgb(0%,0%,0%)" rx="32.5" ry="136.0" stroke="none" /><ellipse cx="281.25" cy="917.5" fill="rgb(0%,0%,0%)" rx="32.5" ry="136.0" stroke="none" /><ellipse cx="281.25" cy="1314.5" fill="rgb(0%,0%,0%)" rx="32.5" ry="136.0" stroke="none" /><ellipse cx="281.25" cy="1711.5" fill="rgb(0%,0%,0%)" rx="32.5" ry="136.0" stroke="none" /><ellipse cx="281.25" cy="2108.5" fill="rgb(0%,0%,0%)" rx="80.0" ry="46.5" stroke="none" /><ellipse cx="281.25" cy="2505.5" fill="rgb(0%,0%,0%)" rx="80.0" ry="46.5" stroke="none" /><ellipse cx="468.75" cy="322.0" fill="rgb(0%,0%,0%)" rx="32.5" ry="136.0" stroke="none" /><ellipse cx="468.75" cy="719.0" fill="rgb(0%,0%,0%)" rx="32.5" ry="136.0" stroke="none" /><ellipse cx="468.75" cy="1116.0" fill="rgb(0%,0%,0%)" rx="32.5" ry="136.0" stroke="none" /><ellipse cx="468.75" cy="1513.0" fill="rgb(0%,0%,0%)" rx="80.0" ry="46.5" stroke="none" /><ellipse cx="468.75" cy="1910.0" fill="rgb(0%,0%,0%)" rx="32.5" ry="136.0" stroke="none" /><ellipse cx="468.75" cy="2307.0" fill="rgb(0%,0%,0%)" rx="80.0" ry="46.5" stroke="none" /><ellipse cx="656.25" cy="520.5" fill="rgb(0%,0%,0%)" rx="32.5" ry="136.0" stroke="none" /><ellipse cx="656.25" cy="917.5" fill="rgb(0%,0%,0%)" rx="32.5" ry="136.0" stroke="none" /><ellipse cx="656.25" cy="1314.5" fill="rgb(0%,0%,0%)" rx="32.5" ry="136.0" stroke="none" /><ellipse cx="656.25" cy="1711.5" fill="rgb(0%,0%,0%)" rx="80.0" ry="46.5" stroke="none" /><ellipse cx="656.25" cy="2108.5" fill="rgb(0%,0%,0%)" rx="80.0" ry="46.5" stroke="none" /><ellipse cx="656.25" cy="2505.5" fill="rgb(0%,0%,0%)" rx="80.0" ry="46.5" stroke="none" /><ellipse cx="843.75" cy="322.0" fill="rgb(0%,0%,0%)" rx="32.5" ry="136.0" stroke="none" /><ellipse cx="843.75" cy="719.0" fill="rgb(0%,0%,0%)" rx="32.5" ry="136.0" stroke="none" /><ellipse cx="843.75" cy="1116.0" fill="rgb(0%,0%,0%)" rx="80.0" ry="46.5" stroke="none" /><ellipse cx="843.75" cy="1513.0" fill="rgb(0%,0%,0%)" rx="32.5" ry="136.0" stroke="none" /><ellipse cx="843.75" cy="1910.0" fill="rgb(0%,0%,0%)" rx="32.5" ry="136.0" stroke="none" /><ellipse cx="843.75" cy="2307.0" fill="rgb(0%,0%,0%)" rx="80.0" ry="46.5" stroke="none" /><ellipse cx="1031.25" cy="520.5" fill="rgb(0%,0%,0%)" rx="32.5" ry="136.0" stroke="none" /><ellipse cx="1031.25" cy="917.5" fill="rgb(0%,0%,0%)" rx="32.5" ry="136.0" stroke="none" /><ellipse cx="1031.25" cy="1314.5" fill="rgb(0%,0%,0%)" rx="80.0" ry="46.5" stroke="none" /><ellipse cx="1031.25" cy="1711.5" fill="rgb(0%,0%,0%)" rx="32.5" ry="136.0" stroke="none" /><ellipse cx="1031.25" cy="2108.5" fill="rgb(0%,0%,0%)" rx="80.0" ry="46.5" stroke="none" /><ellipse cx="1031.25" cy="2505.5" fill="rgb(0%,0%,0%)" rx="80.0" ry="46.5" stroke="none" /><ellipse cx="1218.75" cy="322.0" fill="rgb(0%,0%,0%)" rx="32.5" ry="136.0" stroke="none" /><ellipse cx="1218.75" cy="719.0" fill="rgb(0%,0%,0%)" rx="32.5" ry="136.0" stroke="none" /><ellipse cx="1218.75" cy="1116.0" fill="rgb(0%,0%,0%)" rx="80.0" ry="46.5" stroke="none" /><ellipse cx="1218.75" cy="1513.0" fill="rgb(0%,0%,0%)" rx="80.0" ry="46.5" stroke="none" /><ellipse cx="1218.75" cy="1910.0" fill="rgb(0%,0%,0%)" rx="32.5" ry="136.0" stroke="none" /><ellipse cx="1218.75" cy="2307.0" fill="rgb(0%,0%,0%)" rx="80.0" ry="46.5" stroke="none" /><ellipse cx="1406.25" cy="520.5" fill="rgb(0%,0%,0%)" rx="32.5" ry="136.0" stroke="none" /><ellipse cx="1406.25" cy="917.5" fill="rgb(0%,0%,0%)" rx="32.5" ry="136.0" stroke="none" /><ellipse cx="1406.25" cy="1314.5" fill="rgb(0%,0%,0%)" rx="80.0" ry="46.5" stroke="none" /><ellipse cx="1406.25" cy="1711.5" fill="rgb(0%,0%,0%)" rx="80.0" ry="46.5" stroke="none" /><ellipse cx="1406.25" cy="2108.5" fill="rgb(0%,0%,0%)" rx="80.0" ry="46.5" stroke="none" /><ellipse cx="1406.25" cy="2505.5" fill="rgb(0%,0%,0%)" rx="80.0" ry="46.5" stroke="none" /><ellipse cx="1593.75" cy="322.0" fill="rgb(0%,0%,0%)" rx="32.5" ry="136.0" stroke="none" /><ellipse cx="1593.75" cy="719.0" fill="rgb(0%,0%,0%)" rx="80.0" ry="46.5" stroke="none" /><ellipse cx="1593.75" cy="1116.0" fill="rgb(0%,0%,0%)" rx="32.5" ry="136.0" stroke="none" /><ellipse cx="1593.75" cy="1513.0" fill="rgb(0%,0%,0%)" rx="32.5" ry="136.0" stroke="none" /><ellipse cx="1593.75" cy="1910.0" fill="rgb(0%,0%,0%)" rx="32.5" ry="136.0" stroke="none" /><ellipse cx="1593.75" cy="2307.0" fill="rgb(0%,0%,0%)" rx="80.0" ry="46.5" stroke="none" /><ellipse cx="1781.25" cy="520.5" fill="rgb(0%,0%,0%)" rx="32.5" ry="136.0" stroke="none" /><ellipse cx="1781.25" cy="917.5" fill="rgb(0%,0%,0%)" rx="80.0" ry="46.5" stroke="none" /><ellipse cx="1781.25" cy="1314.5" fill="rgb(0%,0%,0%)" rx="32.5" ry="136.0" stroke="none" /><ellipse cx="1781.25" cy="1711.5" fill="rgb(0%,0%,0%)" rx="32.5" ry="136.0" stroke="none" /><ellipse cx="1781.25" cy="2108.5" fill="rgb(0%,0%,0%)" rx="80.0" ry="46.5" stroke="none" /><ellipse cx="1781.25" cy="2505.5" fill="rgb(0%,0%,0%)" rx="80.0" ry="46.5" stroke="none" /><ellipse cx="1968.75" cy="322.0" fill="rgb(0%,0%,0%)" rx="32.5" ry="136.0" stroke="none" /><ellipse cx="1968.75" cy="719.0" fill="rgb(0%,0%,0%)" rx="80.0" ry="46.5" stroke="none" /><ellipse cx="1968.75" cy="1116.0" fill="rgb(0%,0%,0%)" rx="32.5" ry="136.0" stroke="none" /><ellipse cx="1968.75" cy="1513.0" fill="rgb(0%,0%,0%)" rx="80.0" ry="46.5" stroke="none" /><ellipse cx="1968.75" cy="1910.0" fill="rgb(0%,0%,0%)" rx="32.5" ry="136.0" stroke="none" /><ellipse cx="1968.75" cy="2307.0" fill="rgb(0%,0%,0%)" rx="80.0" ry="46.5" stroke="none" /><ellipse cx="2156.25" cy="520.5" fill="rgb(0%,0%,0%)" rx="32.5" ry="136.0" stroke="none" /><ellipse cx="2156.25" cy="917.5" fill="rgb(0%,0%,0%)" rx="80.0" ry="46.5" stroke="none" /><ellipse cx="2156.25" cy="1314.5" fill="rgb(0%,0%,0%)" rx="32.5" ry="136.0" stroke="none" /><ellipse cx="2156.25" cy="1711.5" fill="rgb(0%,0%,0%)" rx="80.0" ry="46.5" stroke="none" /><ellipse cx="2156.25" cy="2108.5" fill="rgb(0%,0%,0%)" rx="80.0" ry="46.5" stroke="none" /><ellipse cx="2156.25" cy="2505.5" fill="rgb(0%,0%,0%)" rx="80.0" ry="46.5" stroke="none" /><ellipse cx="2343.75" cy="322.0" fill="rgb(0%,0%,0%)" rx="32.5" ry="136.0" stroke="none" /><ellipse cx="2343.75" cy="719.0" fill="rgb(0%,0%,0%)" rx="80.0" ry="46.5" stroke="none" /><ellipse cx="2343.75" cy="1116.0" fill="rgb(0%,0%,0%)" rx="80.0" ry="46.5" stroke="none" /><ellipse cx="2343.75" cy="1513.0" fill="rgb(0%,0%,0%)" rx="32.5" ry="136.0" stroke="none" /><ellipse cx="2343.75" cy="1910.0" fill="rgb(0%,0%,0%)" rx="32.5" ry="136.0" stroke="none" /><ellipse cx="2343.75" cy="2307.0" fill="rgb(0%,0%,0%)" rx="80.0" ry="46.5" stroke="none" /><ellipse cx="2531.25" cy="520.5" fill="rgb(0%,0%,0%)" rx="32.5" ry="136.0" stroke="none" /><ellipse cx="2531.25" cy="917.5" fill="rgb(0%,0%,0%)" rx="80.0" ry="46.5" stroke="none" /><ellipse cx="2531.25" cy="1314.5" fill="rgb(0%,0%,0%)" rx="80.0" ry="46.5" stroke="none" /><ellipse cx="2531.25" cy="1711.5" fill="rgb(0%,0%,0%)" rx="32.5" ry="136.0" stroke="none" /><ellipse cx="2531.25" cy="2108.5" fill="rgb(0%,0%,0%)" rx="80.0" ry="46.5" stroke="none" /><ellipse cx="2531.25" cy="2505.5" fill="rgb(0%,0%,0%)" rx="80.0" ry="46.5" stroke="none" /><ellipse cx="2718.75" cy="322.0" fill="rgb(0%,0%,0%)" rx="32.5" ry="136.0" stroke="none" /><ellipse cx="2718.75" cy="719.0" fill="rgb(0%,0%,0%)" rx="80.0" ry="46.5" stroke="none" /><ellipse cx="2718.75" cy="1116.0" fill="rgb(0%,0%,0%)" rx="80.0" ry="46.5" stroke="none" /><ellipse cx="2718.75" cy="1513.0" fill="rgb(0%,0%,0%)" rx="80.0" ry="46.5" stroke="none" /><ellipse cx="2718.75" cy="1910.0" fill="rgb(0%,0%,0%)" rx="32.5" ry="136.0" stroke="none" /><ellipse cx="2718.75" cy="2307.0" fill="rgb(0%,0%,0%)" rx="80.0" ry="46.5" stroke="none" /><ellipse cx="2906.25" cy="520.5" fill="rgb(0%,0%,0%)" rx="32.5" ry="136.0" stroke="none" /><ellipse cx="2906.25" cy="917.5" fill="rgb(0%,0%,0%)" rx="80.0" ry="46.5" stroke="none" /><ellipse cx="2906.25" cy="1314.5" fill="rgb(0%,0%,0%)" rx="80.0" ry="46.5" stroke="none" /><ellipse cx="2906.25" cy="1711.5" fill="rgb(0%,0%,0%)" rx="80.0" ry="46.5" stroke="none" /><ellipse cx="2906.25" cy="2108.5" fill="rgb(0%,0%,0%)" rx="80.0" ry="46.5" stroke="none" /><ellipse cx="2906.25" cy="2505.5" fill="rgb(0%,0%,0%)" rx="80.0" ry="46.5" stroke="none" /></svg>